<svg width="256" height="256" viewBox="0 0 256 256" fill="none" xmlns="http://www.w3.org/2000/svg">
<path d="M0 16C0 7.16344 7.16344 0 16 0H240C248.837 0 256 7.16344 256 16V240C256 248.837 248.837 256 240 256H16C7.16344 256 0 248.837 0 240V16Z" fill="#CBD5E1"/>
<path d="M49.72 180.5V82.5H91.44C97.04 82.5 102.173 83.9 106.84 86.7C111.6 89.4067 115.38 93.14 118.18 97.9C120.98 102.567 122.38 107.84 122.38 113.72C122.38 119.04 120.98 123.987 118.18 128.56C115.38 133.133 111.647 136.82 106.98 139.62C102.313 142.327 97.1333 143.68 91.44 143.68H64.84V180.5H49.72ZM107.96 180.5L83.04 136.26L98.58 132.76L126.3 180.64L107.96 180.5ZM64.84 129.12H92.84C95.5467 129.12 97.9733 128.467 100.12 127.16C102.267 125.76 103.947 123.893 105.16 121.56C106.373 119.133 106.98 116.473 106.98 113.58C106.98 110.313 106.187 107.467 104.6 105.04C103.107 102.52 100.96 100.56 98.16 99.16C95.4533 97.76 92.3733 97.06 88.92 97.06H64.84V129.12ZM147.064 180.5V82.5H208.804V97.06H162.184V165.94H208.804V180.5H147.064ZM153.924 137.52V122.96H201.104V137.52H153.924Z" fill="#1E293B"/>
</svg>
